<?xml version="1.0" encoding="utf-8"?>
<svg viewBox="0 0 500 500" xmlns="http://www.w3.org/2000/svg">
  <g transform="matrix(2.404091, 0, 0, 2.404091, 535.174683, -522.036499)">
    <rect x="33.324" y="246.756" width="62.6" height="8.102" style="fill: rgb(0, 92, 193);" transform="matrix(1, 0, -0.25185, 1, -162.798233, 28.532457)"/>
    <rect x="33.324" y="275.11" width="62.6" height="8.102" style="fill: rgb(0, 92, 193);" transform="matrix(1, 0, -0.25185, 1, -162.798233, 28.532457)"/>
    <rect x="33.324" y="302.36" width="62.6" height="8.102" style="fill: rgb(0, 92, 193);" transform="matrix(1, 0, -0.25185, 1, -162.798233, 28.532457)"/>
    <rect x="33.324" y="330.346" width="62.6" height="8.102" style="fill: rgb(0, 92, 193);" transform="matrix(1, 0, -0.25185, 1, -162.798233, 28.532457)"/>
    <rect x="157.79" y="397.61" width="93.811" height="9.544" transform="matrix(-0.22517, 0.974319, -1.026357, 0, 317.105408, 121.56765)" style="fill: rgb(0, 92, 193);"/>
  </g>
  <g transform="matrix(-2.404091, 0, 0, -2.404091, -35.174698, 1022.036499)">
    <rect x="33.324" y="246.756" width="62.6" height="8.102" style="fill: rgb(0, 92, 193);" transform="matrix(1, 0, -0.25185, 1, -162.798233, 28.532457)"/>
    <rect x="33.324" y="275.11" width="62.6" height="8.102" style="fill: rgb(0, 92, 193);" transform="matrix(1, 0, -0.25185, 1, -162.798233, 28.532457)"/>
    <rect x="33.324" y="302.36" width="62.6" height="8.102" style="fill: rgb(0, 92, 193);" transform="matrix(1, 0, -0.25185, 1, -162.798233, 28.532457)"/>
    <rect x="33.324" y="330.346" width="62.6" height="8.102" style="fill: rgb(0, 92, 193);" transform="matrix(1, 0, -0.25185, 1, -162.798233, 28.532457)"/>
    <rect x="157.79" y="397.61" width="93.811" height="9.544" transform="matrix(-0.22517, 0.974319, -1.026357, 0, 317.105408, 121.56765)" style="fill: rgb(0, 92, 193);"/>
  </g>
  <g transform="matrix(1.101189, 0, 0, 1.101189, 115.035286, 19.831675)">
    <polygon points="122.524 0.564 119.729 10.064 119.729 285.732 122.524 288.523 250.486 212.885" fill="#343434"/>
    <polygon points="122.525 0.564 -5.437 212.885 122.525 288.524 122.525 154.722" fill="#005cc1"/>
    <polygon points="122.524 312.752 120.949 314.671 120.949 412.87 122.524 417.472 250.562 237.151" fill="#3C3C3B"/>
    <polygon points="122.525 417.469 122.525 312.749 -5.437 237.149" fill="#005cc1"/>
    <polygon points="122.524 288.523 250.484 212.885 122.524 154.723" fill="#141414"/>
    <polygon points="-5.436 212.885 122.524 288.523 122.524 154.723" fill="#393939"/>
  </g>
</svg>